#!OML:ASF H:\Terrain\Patient Classification 1\Walking\liu\liu.ASF
:FULLY-SPECIFIED
:DEGREES
240
root 9.75207 17.1904 2.50083 5.77934 -4.18373 4.4545
lowerback -5.48767 -0.185007 -6.3675
upperback -0.187129 0.135517 0.593023
thorax 2.87286 -0.0218205 4.20533
lowerneck -21.5184 -4.13336 -11.9447
upperneck 21.8435 -4.99975 12.1157
head 11.2802 -1.79642 5.69999
rclavicle 1.07841e-014 2.34566e-014
rhumerus -38.2955 15.4874 -89.898
rradius 36.1106
rwrist -16.0593
rhand -29.7901 -22.5872
rfingers 7.12502
rthumb -3.1148 -52.5442
lclavicle 1.07841e-014 2.34566e-014
lhumerus -31.8828 -5.75019 87.9007
lradius 20.45
lwrist -7.19775
lhand -12.1092 -26.205
lfingers 7.12502
lthumb 13.9517 3.30685
rfemur -18.5831 -7.10204 15.6188
rtibia 69.8445
rfoot -0.120688 -15.0572
rtoes -16.7341
lfemur -15.9365 7.92128 -29.4597
ltibia 16.6821
lfoot -7.50254 3.70088
ltoes -2.16896
241
root 9.76406 17.1937 2.6367 5.74212 -3.73637 4.22502
lowerback -5.42493 -0.348973 -6.06722
upperback -0.151037 -0.107186 0.667553
thorax 2.90343 -0.140972 4.09427
lowerneck -21.5839 -4.14351 -11.8444
upperneck 21.9651 -5.02253 12.0075
head 11.3354 -1.80974 5.64238
rclavicle 9.59136e-015 -2.38542e-015
rhumerus -39.0009 15.6378 -90.0689
rradius 36.6382
rwrist -15.9657
rhand -29.3401 -24.1549
rfingers 7.12502
rthumb -2.68016 -54.1178
lclavicle 9.59136e-015 -2.38542e-015
lhumerus -31.0052 -6.78342 88.2102
lradius 20.4653
lwrist -6.69288
lhand -12.9347 -26.1464
lfingers 7.12502
lthumb 13.1561 3.4185
rfemur -19.7644 -7.31112 16.1492
rtibia 70.2937
rfoot -0.480828 -15.2691
rtoes -16.567
lfemur -15.5769 7.86821 -29.239
ltibia 17.2079
lfoot -8.25621 3.37667
ltoes -2.79788
242
root 9.77194 17.1914 2.75721 5.84553 -3.30318 3.78402
lowerback -5.26248 -0.591906 -5.63963
upperback -0.247454 -0.476084 0.872903
thorax 2.75261 -0.313628 4.03807
lowerneck -21.3983 -3.92216 -11.9403
upperneck 21.971 -4.73103 12.1373
head 11.2654 -1.67577 5.75651
rclavicle 3.08116e-015 2.38542e-014
rhumerus -39.6049 15.6503 -90.0503
rradius 36.6662
rwrist -15.4657
rhand -26.5323 -27.418
rfingers 7.12502
rthumb 0.0316168 -57.3977
lclavicle 3.08116e-015 2.38542e-014
lhumerus -30.1644 -7.07577 88.2196
lradius 20.4803
lwrist -6.71669
lhand -13.3983 -26.6648
lfingers 7.12502
lthumb 12.7093 2.92842
rfemur -21.2688 -7.46545 17.0184
rtibia 70.5476
rfoot -0.728177 -15.2492
rtoes -19.671
lfemur -15.4855 7.1239 -28.6677
ltibia 17.7496
lfoot -8.85585 3.69482
ltoes -1.38601
243
root 9.78126 17.1818 2.88714 5.75928 -2.98049 3.63844
lowerback -5.13379 -0.823909 -5.52275
upperback -0.118926 -0.800871 1.0089
thorax 2.85043 -0.480719 4.08876
lowerneck -21.7595 -3.76265 -11.9547
upperneck 22.2073 -4.4597 12.0774
head 11.3822 -1.55227 5.79355
rclavicle 6.90777e-015 -7.95139e-016
rhumerus -39.5939 15.5166 -89.8518
rradius 36.1481
rwrist -14.9688
rhand -28.1936 -22.9675
rfingers 7.12502
rthumb -1.57292 -52.9415
lclavicle 6.90777e-015 -7.95139e-016
lhumerus -29.0753 -7.21774 88.1905
lradius 20.7155
lwrist -6.15362
lhand -13.349 -27.3386
lfingers 7.12502
lthumb 12.7568 2.25164
rfemur -22.3602 -7.49976 17.4453
rtibia 70.636
rfoot -1.83847 -14.9497
rtoes -21.0927
lfemur -15.0729 6.6068 -28.4593
ltibia 18.1006
lfoot -9.17578 3.9845
ltoes -1.56175
244
root 9.79151 17.1722 3.0251 5.6139 -2.60563 3.93794
lowerback -5.23809 -1.01349 -5.75734
upperback 0.136307 -1.02518 0.946004
thorax 3.20286 -0.611698 4.13522
lowerneck -22.0068 -3.78812 -11.9172
upperneck 22.2746 -4.44491 11.9296
head 11.4481 -1.55379 5.73682
rclavicle -1.01877e-015 0
rhumerus -39.4942 15.2487 -89.6831
rradius 35.71
rwrist -14.9631
rhand -30.0068 -19.8568
rfingers 7.12502
rthumb -3.32399 -49.8106
lclavicle -1.01877e-015 0
lhumerus -27.907 -7.89144 88.2053
lradius 21.0184
lwrist -5.6405
lhand -13.0069 -27.3538
lfingers 7.12502
lthumb 13.0865 2.21559
rfemur -23.2211 -7.58669 17.2744
rtibia 70.5786
rfoot -3.33939 -14.5401
rtoes -18.4087
lfemur -14.447 6.42121 -28.8225
ltibia 18.2587
lfoot -9.64727 3.94089
ltoes -4.11348
245
root 9.8009 17.1729 3.1581 5.5882 -2.12302 4.02223
lowerback -5.31171 -1.2014 -5.76427
upperback 0.22442 -1.26743 0.911618
thorax 3.36327 -0.738868 4.08099
lowerneck -21.5588 -3.74828 -12.1038
upperneck 21.8969 -4.45675 12.3405
head 11.2379 -1.53615 5.90655
rclavicle 2.01518e-014 2.38542e-015
rhumerus -39.5467 14.47 -89.4484
rradius 35.0408
rwrist -14.5931
rhand -29.8771 -19.3877
rfingers 7.12502
rthumb -3.19879 -49.3435
lclavicle 2.01518e-014 2.38542e-015
lhumerus -26.8011 -8.61422 88.1105
lradius 21.0433
lwrist -5.58953
lhand -12.4014 -27.1706
lfingers 7.12502
lthumb 13.6702 2.36043
rfemur -24.1899 -7.78135 17.3804
rtibia 70.3306
rfoot -4.21439 -14.1447
rtoes -14.1738
lfemur -13.8337 5.79508 -28.8906
ltibia 18.2899
lfoot -10.1925 4.16484
ltoes -4.87002
246
root 9.81069 17.1774 3.29366 5.47591 -1.71262 3.82346
lowerback -5.12061 -1.37732 -5.54333
upperback 0.260525 -1.52871 0.976708
thorax 3.31869 -0.865326 4.00445
lowerneck -21.4918 -3.72175 -12.2209
upperneck 21.9168 -4.48036 12.677
head 11.2483 -1.51895 6.05514
rclavicle 1.37907e-014 6.75868e-015
rhumerus -39.7608 13.7106 -89.2154
rradius 34.5932
rwrist -13.9574
rhand -29.1616 -18.9183
rfingers 7.12502
rthumb -2.50782 -48.8833
lclavicle 1.37907e-014 6.75868e-015
lhumerus -25.7927 -9.09083 88.0388
lradius 21.0088
lwrist -5.27995
lhand -12.2941 -27.3279
lfingers 7.12502
lthumb 13.7736 2.19622
rfemur -25.0538 -7.80403 17.7995
rtibia 69.886
rfoot -4.86059 -13.6246
rtoes -12.6377
lfemur -13.0899 5.01695 -28.5904
ltibia 18.294
lfoot -10.8141 4.58537
ltoes -4.90952
247
root 9.82321 17.1678 3.43507 5.32342 -1.45162 3.78231
lowerback -4.96929 -1.5127 -5.45013
upperback 0.262119 -1.72564 1.03558
thorax 3.2561 -0.960699 3.99953
lowerneck -21.7713 -3.75633 -12.0036
upperneck 22.4627 -4.49209 12.2124
head 11.4902 -1.55651 5.86188
rclavicle -1.06101e-014 -8.34896e-015
rhumerus -40.2149 13.2735 -89.0186
rradius 34.4716
rwrist -13.5504
rhand -29.5568 -21.0704
rfingers 7.12502
rthumb -2.88946 -51.0306
lclavicle -1.06101e-014 -8.34896e-015
lhumerus -25.0128 -9.27558 88.0458
lradius 21.1161
lwrist -5.2583
lhand -12.6125 -27.5262
lfingers 7.12502
lthumb 13.4667 2.01846
rfemur -25.8641 -7.66763 18.0011
rtibia 69.3174
rfoot -5.64027 -12.7538
rtoes -13.675
lfemur -12.488 4.51886 -28.5228
ltibia 18.5919
lfoot -11.6837 4.8983
ltoes -5.88986
248
root 9.83211 17.1479 3.56959 5.39089 -1.23375 3.73236
lowerback -5.02878 -1.6587 -5.41052
upperback 0.162351 -1.92511 1.15134
thorax 3.21081 -1.05696 4.08095
lowerneck -21.6922 -3.70233 -11.8432
upperneck 22.7486 -4.38538 11.7869
head 11.5511 -1.55013 5.69702
rclavicle 4.07509e-015 -9.14409e-015
rhumerus -40.9472 13.4004 -89.08
rradius 34.6117
rwrist -13.8915
rhand -30.9813 -24.5881
rfingers 7.12502
rthumb -4.26511 -54.5252
lclavicle 4.07509e-015 -9.14409e-015
lhumerus -24.3678 -9.3781 88.0677
lradius 21.3869
lwrist -5.37554
lhand -12.3929 -27.3939
lfingers 7.12502
lthumb 13.6783 2.13664
rfemur -26.959 -7.48533 18.2749
rtibia 68.6189
rfoot -6.46339 -12.1028
rtoes -14.9366
lfemur -12.3565 4.15163 -28.4744
ltibia 19.1868
lfoot -12.4555 5.05496
ltoes -4.96347
249
root 9.83549 17.1157 3.69924 5.46397 -1.06987 3.74979
lowerback -5.02931 -1.80043 -5.53551
upperback 0.156394 -2.11034 1.261
thorax 3.23486 -1.15292 4.25012
lowerneck -21.698 -3.62447 -11.8339
upperneck 22.7415 -4.26365 11.7425
head 11.5303 -1.49956 5.69766
rclavicle -5.56597e-015 -5.96354e-015
rhumerus -41.4738 13.6902 -89.1832
rradius 34.8074
rwrist -14.4109
rhand -31.7936 -27.1903
rfingers 7.12502
rthumb -5.0494 -57.1101
lclavicle -5.56597e-015 -5.96354e-015
lhumerus -23.4748 -10.0468 88.1541
lradius 21.591
lwrist -5.0487
lhand -12.332 -27.1854
lfingers 7.12502
lthumb 13.737 2.3411
rfemur -28.1259 -7.17213 18.4877
rtibia 67.8049
rfoot -7.47527 -11.8855
rtoes -16.0301
lfemur -12.3248 4.07023 -28.5098
ltibia 19.9651
lfoot -13.1704 5.02619
ltoes -4.61207
